<svg width="40" height="40" viewBox="0 0 40 40" fill="none" xmlns="http://www.w3.org/2000/svg">
<path fill-rule="evenodd" clip-rule="evenodd" d="M29.9996 29.999V33.3331H28.3332V34.9995H26.6655V40H24.9991V38.3336H23.3328V40H21.6664V36.6659H23.3328V34.9995H24.9991V31.6667H23.3328V26.6662H20V31.6667H9.99914V29.999H8.33276V28.3326H10.833V26.6662H12.4994V28.3326H14.9996V23.3334H21.6664V21.6658H20V19.9994H14.9996V21.6658H13.3332V19.9994H11.6655V21.6658H8.33276V23.3334H6.66638V21.6658H5V18.333H6.66638V16.6666H8.33276V18.333H9.99914V16.6666H13.3332V15.0002H11.6655V13.3325H9.99914V11.6661H6.66638V9.99968H8.33276V6.66688H6.66638V4.9992H9.99914V3.3328H11.6655V4.9992H13.3332V6.66688H11.6655V8.33328H13.3332V9.99968H14.9996V11.6661H16.666V9.99968H18.3323V8.33328H21.6664V6.66688H18.3323V4.9992H20V3.3328H24.9991V4.9992H26.6655V3.3328H28.3332V1.6664H29.9996V9.99968H28.3332V8.33328H26.6655V9.99968H28.3332V11.6661H26.6655V13.3325H24.9991V15.0002H26.6655V16.6666H24.9991V21.6658H26.6655V23.3334H28.3332V24.9998H29.9996V23.3334H28.3332V19.9994H29.9996V18.333H31.666V19.9994H33.3323V21.6658H31.666V24.9998H33.3323V26.6662H34.9987V28.3326H31.666V29.999H29.9996V28.3326H28.3332V26.6662H26.6655V29.999H29.9996ZM24.9991 1.6664H20V0H24.9991V1.6664ZM14.9996 6.6656H16.666V8.332H14.9996V6.6656ZM26.6668 19.9994L26.6655 16.6666H28.3319V19.9994H26.6668ZM28.3332 16.6653V11.6661H29.9996V16.6653H28.3332ZM33.3323 19.9994V16.6666H34.9987V19.9994H33.3323ZM31.666 16.6653V11.6661H33.3323V16.6666L31.666 16.6653ZM33.3336 9.99968H35V11.6661H33.3323L33.3336 9.99968ZM33.3323 3.3328H34.9987V8.33328H33.3323L33.3336 9.99968H31.666V1.6664H33.3323V3.3328ZM29.9996 9.99968H31.666V11.6661H29.9996V9.99968ZM23.3328 33.3331V34.9995H21.6664V33.3331H23.3328ZM9.99914 31.668V33.3344H8.33276V31.668H9.99914Z" fill="#009F3A"/>
</svg>
