<svg width="16" height="16" viewBox="0 0 16 16" fill="none" xmlns="http://www.w3.org/2000/svg">
<path fill-rule="evenodd" clip-rule="evenodd" d="M8.00002 15.0009C8.13263 15.0009 8.25981 14.9482 8.35357 14.8544C8.44734 14.7607 8.50002 14.6335 8.50002 14.5009V2.70789L11.646 5.85489C11.7399 5.94878 11.8672 6.00153 12 6.00153C12.1328 6.00153 12.2601 5.94878 12.354 5.85489C12.4479 5.76101 12.5007 5.63367 12.5007 5.50089C12.5007 5.36812 12.4479 5.24078 12.354 5.14689L8.35402 1.14689C8.30758 1.10033 8.2524 1.06339 8.19165 1.03818C8.13091 1.01297 8.06579 1 8.00002 1C7.93425 1 7.86913 1.01297 7.80839 1.03818C7.74764 1.06339 7.69247 1.10033 7.64602 1.14689L3.64602 5.14689C3.59953 5.19338 3.56266 5.24857 3.5375 5.30931C3.51234 5.37005 3.49939 5.43515 3.49939 5.50089C3.49939 5.63367 3.55213 5.76101 3.64602 5.85489C3.73991 5.94878 3.86725 6.00153 4.00002 6.00153C4.1328 6.00153 4.26013 5.94878 4.35402 5.85489L7.50002 2.70789V14.5009C7.50002 14.6335 7.5527 14.7607 7.64647 14.8544C7.74024 14.9482 7.86741 15.0009 8.00002 15.0009Z" fill="black"/>
</svg>
