<svg width="14" height="14" viewBox="0 0 14 14" fill="none" xmlns="http://www.w3.org/2000/svg">
<path d="M0 3.5C0 3.03587 0.184374 2.59075 0.512563 2.26256C0.840752 1.93437 1.28587 1.75 1.75 1.75H12.25C12.7141 1.75 13.1592 1.93437 13.4874 2.26256C13.8156 2.59075 14 3.03587 14 3.5V10.5C14 10.9641 13.8156 11.4092 13.4874 11.7374C13.1592 12.0656 12.7141 12.25 12.25 12.25H1.75C1.28587 12.25 0.840752 12.0656 0.512563 11.7374C0.184374 11.4092 0 10.9641 0 10.5V3.5ZM1.75 2.625C1.51794 2.625 1.29538 2.71719 1.13128 2.88128C0.967187 3.04538 0.875 3.26794 0.875 3.5V3.68988L7 7.36487L13.125 3.68988V3.5C13.125 3.26794 13.0328 3.04538 12.8687 2.88128C12.7046 2.71719 12.4821 2.625 12.25 2.625H1.75ZM13.125 4.71012L9.0055 7.182L13.125 9.71687V4.71012ZM13.0952 10.7266L8.16025 7.6895L7 8.38513L5.83975 7.6895L0.90475 10.7257C0.954472 10.9119 1.06428 11.0765 1.21712 11.1939C1.36996 11.3113 1.55728 11.375 1.75 11.375H12.25C12.4426 11.375 12.6298 11.3115 12.7827 11.1943C12.9355 11.077 13.0454 10.9127 13.0952 10.7266ZM0.875 9.71687L4.9945 7.182L0.875 4.71012V9.71687Z" fill="white"/>
</svg>
