<svg width="14" height="14" viewBox="0 0 14 14" fill="none" xmlns="http://www.w3.org/2000/svg">
<g clip-path="url(#clip0_497_38038)">
<path d="M14 7.04375C14 3.1535 10.8658 0 7.00004 0C3.13254 0.000875 -0.00170898 3.1535 -0.00170898 7.04463C-0.00170898 10.5595 2.55854 13.4732 5.90454 14.0017V9.07988H4.12829V7.04463H5.90629V5.4915C5.90629 3.72662 6.95192 2.75187 8.55054 2.75187C9.31704 2.75187 10.1177 2.88925 10.1177 2.88925V4.62175H9.23479C8.36592 4.62175 8.09467 5.16512 8.09467 5.7225V7.04375H10.0354L9.72567 9.079H8.09379V14.0009C11.4398 13.4724 14 10.5586 14 7.04375Z" fill="black"/>
</g>
<defs>
<clipPath id="clip0_497_38038">
<rect width="14" height="14" fill="white"/>
</clipPath>
</defs>
</svg>
