<svg width="18" height="18" viewBox="0 0 18 18" fill="none" xmlns="http://www.w3.org/2000/svg">
<path d="M9.43875 14.2292C9.42703 14.296 9.42138 14.3638 9.42188 14.4317C9.42188 14.7748 9.65812 15.0032 9.98438 15.0032C10.2836 15.0032 10.5379 14.8097 10.6088 14.4666L11.232 11.4257H12.5865C13.0601 11.4257 13.2806 11.1624 13.2806 10.8103C13.2806 10.4593 13.0691 10.2141 12.5865 10.2141H11.4784L12.0589 7.37456H13.482C13.9658 7.37456 14.1772 7.11919 14.1772 6.75919C14.1772 6.40706 13.9658 6.16969 13.482 6.16969H12.3052L12.8407 3.57769C12.8518 3.51679 12.8578 3.45508 12.8588 3.39319C12.8597 3.3167 12.8453 3.24081 12.8164 3.16997C12.7876 3.09913 12.7448 3.03478 12.6907 2.98069C12.6367 2.92661 12.5723 2.88388 12.5015 2.85503C12.4306 2.82618 12.3547 2.81178 12.2782 2.81269C12.1366 2.80999 11.9985 2.85685 11.8878 2.94518C11.7771 3.03352 11.7007 3.15776 11.6719 3.29644L11.0835 6.16969H8.56913L9.10575 3.57769C9.11475 3.53269 9.12263 3.44494 9.12263 3.39319C9.12356 3.31603 9.10892 3.23947 9.07958 3.16811C9.05024 3.09674 9.00681 3.03202 8.95188 2.97782C8.89695 2.92363 8.83165 2.88107 8.75989 2.8527C8.68813 2.82432 8.61139 2.81071 8.53425 2.81269C8.39417 2.81209 8.25819 2.85991 8.14932 2.94807C8.04046 3.03622 7.96541 3.15929 7.93687 3.29644L7.34625 6.16969H6.09075C5.607 6.16969 5.39662 6.41719 5.39662 6.76819C5.39662 7.11919 5.607 7.37456 6.09075 7.37456H7.11L6.53062 10.2129H5.18513C4.7115 10.2129 4.5 10.4593 4.5 10.8103C4.5 11.1613 4.7115 11.4257 5.18625 11.4257H6.28425L5.70375 14.2292C5.69475 14.2742 5.68687 14.3698 5.68687 14.4317C5.68687 14.7748 5.92312 15.0032 6.24937 15.0032C6.5475 15.0032 6.80288 14.8097 6.87263 14.4666L7.497 11.4257H10.0192L9.43875 14.2292ZM8.31375 7.35656H10.863L10.2836 10.2399H7.71638L8.31375 7.35656Z" fill="#5D5D5D"/>
</svg>
