<svg width="12" height="12" viewBox="0 0 12 12" fill="none" xmlns="http://www.w3.org/2000/svg">
<g clip-path="url(#clip0_502_137686)">
<path d="M1.875 6C1.97446 6 2.06984 5.96049 2.14016 5.89016C2.21049 5.81984 2.25 5.72446 2.25 5.625C2.25 5.52554 2.21049 5.43016 2.14016 5.35984C2.06984 5.28951 1.97446 5.25 1.875 5.25C1.77554 5.25 1.68016 5.28951 1.60984 5.35984C1.53951 5.43016 1.5 5.52554 1.5 5.625C1.5 5.72446 1.53951 5.81984 1.60984 5.89016C1.68016 5.96049 1.77554 6 1.875 6Z" fill="#3B3B3B"/>
<path d="M3.75 0.75C3.35218 0.75 2.97064 0.908035 2.68934 1.18934C2.40804 1.47064 2.25 1.85218 2.25 2.25V3.75H1.5C1.10218 3.75 0.720644 3.90804 0.43934 4.18934C0.158035 4.47064 0 4.85218 0 5.25L0 7.5C0 7.89782 0.158035 8.27936 0.43934 8.56066C0.720644 8.84196 1.10218 9 1.5 9H2.25V9.75C2.25 10.1478 2.40804 10.5294 2.68934 10.8107C2.97064 11.092 3.35218 11.25 3.75 11.25H8.25C8.64782 11.25 9.02936 11.092 9.31066 10.8107C9.59196 10.5294 9.75 10.1478 9.75 9.75V9H10.5C10.8978 9 11.2794 8.84196 11.5607 8.56066C11.842 8.27936 12 7.89782 12 7.5V5.25C12 4.85218 11.842 4.47064 11.5607 4.18934C11.2794 3.90804 10.8978 3.75 10.5 3.75H9.75V2.25C9.75 1.85218 9.59196 1.47064 9.31066 1.18934C9.02936 0.908035 8.64782 0.75 8.25 0.75H3.75ZM3 2.25C3 2.05109 3.07902 1.86032 3.21967 1.71967C3.36032 1.57902 3.55109 1.5 3.75 1.5H8.25C8.44891 1.5 8.63968 1.57902 8.78033 1.71967C8.92098 1.86032 9 2.05109 9 2.25V3.75H3V2.25ZM3.75 6C3.35218 6 2.97064 6.15804 2.68934 6.43934C2.40804 6.72064 2.25 7.10218 2.25 7.5V8.25H1.5C1.30109 8.25 1.11032 8.17098 0.96967 8.03033C0.829018 7.88968 0.75 7.69891 0.75 7.5V5.25C0.75 5.05109 0.829018 4.86032 0.96967 4.71967C1.11032 4.57902 1.30109 4.5 1.5 4.5H10.5C10.6989 4.5 10.8897 4.57902 11.0303 4.71967C11.171 4.86032 11.25 5.05109 11.25 5.25V7.5C11.25 7.69891 11.171 7.88968 11.0303 8.03033C10.8897 8.17098 10.6989 8.25 10.5 8.25H9.75V7.5C9.75 7.10218 9.59196 6.72064 9.31066 6.43934C9.02936 6.15804 8.64782 6 8.25 6H3.75ZM9 7.5V9.75C9 9.94891 8.92098 10.1397 8.78033 10.2803C8.63968 10.421 8.44891 10.5 8.25 10.5H3.75C3.55109 10.5 3.36032 10.421 3.21967 10.2803C3.07902 10.1397 3 9.94891 3 9.75V7.5C3 7.30109 3.07902 7.11032 3.21967 6.96967C3.36032 6.82902 3.55109 6.75 3.75 6.75H8.25C8.44891 6.75 8.63968 6.82902 8.78033 6.96967C8.92098 7.11032 9 7.30109 9 7.5Z" fill="#3B3B3B"/>
</g>
<defs>
<clipPath id="clip0_502_137686">
<rect width="12" height="12" fill="white"/>
</clipPath>
</defs>
</svg>
