<svg width="14" height="14" viewBox="0 0 14 14" fill="none" xmlns="http://www.w3.org/2000/svg">
<path d="M7.04462 1.75H7.1225C7.84175 1.75262 11.4861 1.77888 12.4688 2.04313C12.7658 2.12377 13.0365 2.28097 13.2538 2.49901C13.471 2.71704 13.6273 2.98829 13.7069 3.28562C13.7952 3.61812 13.8574 4.05825 13.8994 4.51238L13.9081 4.60338L13.9274 4.83087L13.9344 4.92188C13.9913 5.72163 13.9983 6.47062 13.9991 6.63425V6.69987C13.9983 6.86963 13.9904 7.66937 13.9274 8.50237L13.9204 8.59425L13.9125 8.68525C13.8687 9.18575 13.804 9.68275 13.7069 10.0485C13.6273 10.3458 13.471 10.6171 13.2538 10.8351C13.0365 11.0532 12.7658 11.2104 12.4688 11.291C11.4537 11.564 7.59587 11.5833 7.06125 11.5841H6.937C6.66663 11.5841 5.54838 11.5789 4.37587 11.5386L4.22712 11.5334L4.151 11.5299L4.00138 11.5238L3.85175 11.5176C2.8805 11.4748 1.95563 11.4056 1.5295 11.2901C1.23255 11.2096 0.961931 11.0525 0.74467 10.8346C0.527409 10.6167 0.371108 10.3457 0.291375 10.0485C0.19425 9.68363 0.1295 9.18575 0.08575 8.68525L0.07875 8.59337L0.07175 8.50237C0.028318 7.90949 0.0043884 7.31533 0 6.72087L0 6.61325C0.00175 6.42513 0.00875 5.775 0.056 5.0575L0.062125 4.96738L0.06475 4.92188L0.07175 4.83087L0.091 4.60338L0.09975 4.51238C0.14175 4.05825 0.203875 3.61725 0.29225 3.28562C0.371849 2.98829 0.528091 2.71704 0.74536 2.49901C0.96263 2.28097 1.23332 2.12377 1.53038 2.04313C1.9565 1.92938 2.88137 1.85937 3.85262 1.81562L4.00138 1.8095L4.15188 1.80425L4.22712 1.80163L4.37675 1.7955C5.2095 1.76873 6.04258 1.75385 6.87575 1.75088L7.04462 1.75ZM5.6 4.55875V8.7745L9.23738 6.6675L5.6 4.55875Z" fill="black"/>
</svg>
